<?xml version="1.0" encoding="UTF-8" standalone="no"?>
<svg
   id="Layer_1"
   data-name="Layer 1"
   viewBox="0 0 1699.9999 850"
   version="1.1"
   sodipodi:docname="overview01.svg"
   width="1700"
   height="850"
   inkscape:version="1.4 (86a8ad7, 2024-10-11)"
   xmlns:inkscape="http://www.inkscape.org/namespaces/inkscape"
   xmlns:sodipodi="http://sodipodi.sourceforge.net/DTD/sodipodi-0.dtd"
   xmlns="http://www.w3.org/2000/svg"
   xmlns:svg="http://www.w3.org/2000/svg">
  <sodipodi:namedview
     id="namedview393"
     pagecolor="#ffffff"
     bordercolor="#000000"
     borderopacity="0.25"
     inkscape:showpageshadow="2"
     inkscape:pageopacity="0.0"
     inkscape:pagecheckerboard="0"
     inkscape:deskcolor="#d1d1d1"
     inkscape:zoom="0.47426462"
     inkscape:cx="531.34893"
     inkscape:cy="389.02332"
     inkscape:window-width="1920"
     inkscape:window-height="1009"
     inkscape:window-x="1912"
     inkscape:window-y="-8"
     inkscape:window-maximized="1"
     inkscape:current-layer="szöveg_hun" />
  <defs
     id="defs1">
    <style
       id="style1">.cls-1{fill:#fff;}.cls-12,.cls-2{fill:#152742;}.cls-2{stroke:#1c3c68;}.cls-10,.cls-11,.cls-2,.cls-3,.cls-4,.cls-5,.cls-7,.cls-8,.cls-9{stroke-linecap:round;stroke-linejoin:round;}.cls-10,.cls-11,.cls-2,.cls-3,.cls-5,.cls-7,.cls-9{stroke-width:6px;}.cls-10,.cls-11,.cls-3,.cls-4,.cls-5,.cls-7,.cls-8,.cls-9{fill:none;stroke:#34aec5;}.cls-3{stroke-dasharray:24;}.cls-4{stroke-width:6px;}.cls-6{fill:#0a4851;}.cls-7{stroke-dasharray:21.9 21.9;}.cls-8{stroke-width:4px;}.cls-9{stroke-dasharray:22.64 22.64;}.cls-10{stroke-dasharray:0 10;}.cls-11{stroke-dasharray:12;}.cls-13{fill:#34aec5;}</style>
  </defs>
  <polygon
     class="cls-1"
     points="145.91,79.48 155,70.28 146.01,61.19 150.44,56.65 150.45,56.64 261.59,56.64 270.69,65.73 275.24,70.39 270.8,74.94 261.59,84.14 150.45,84.14 "
     id="polygon1" />
  <polygon
     class="cls-1"
     points="782.67,79.55 791.76,70.34 782.78,61.25 787.21,56.71 787.22,56.7 898.36,56.7 907.45,65.79 912,70.45 907.56,75 898.36,84.2 787.22,84.2 "
     id="polygon2" />
  <polygon
     class="cls-1"
     points="1446.29,78.94 1455.38,69.74 1446.39,60.65 1450.82,56.11 1450.83,56.1 1529.44,56.1 1538.54,65.19 1543.09,69.85 1538.65,74.4 1529.44,83.6 1450.83,83.6 "
     id="polygon3" />
  <g
     id="sötét">
    <path
       class="cls-2"
       d="m 105.8,181 h 195.6 a 26.33,26.33 0 0 1 26.3,26.3 v 534.1 a 26.33,26.33 0 0 1 -26.3,26.3 H 105.8 A 26.33,26.33 0 0 1 79.5,741.4 V 207.3 A 26.33,26.33 0 0 1 105.8,181 Z"
       id="path3" />
    <path
       class="cls-2"
       d="m 427.8,181 h 195.6 a 26.33,26.33 0 0 1 26.3,26.3 v 534.1 a 26.33,26.33 0 0 1 -26.3,26.3 H 427.8 A 26.33,26.33 0 0 1 401.5,741.4 V 207.3 A 26.4,26.4 0 0 1 427.8,181 Z"
       id="path4" />
    <path
       class="cls-2"
       d="m 749.9,181 h 195.6 a 26.33,26.33 0 0 1 26.3,26.3 v 534.1 a 26.33,26.33 0 0 1 -26.3,26.3 H 749.9 A 26.33,26.33 0 0 1 723.6,741.4 V 207.3 A 26.33,26.33 0 0 1 749.9,181 Z"
       id="path5" />
    <path
       class="cls-2"
       d="m 1072,181 h 195.6 a 26.33,26.33 0 0 1 26.3,26.3 v 534.1 a 26.33,26.33 0 0 1 -26.3,26.3 H 1072 a 26.33,26.33 0 0 1 -26.3,-26.3 V 207.3 a 26.27,26.27 0 0 1 26.24,-26.3 z"
       id="path6" />
    <path
       class="cls-2"
       d="m 1394,181 h 195.6 a 26.33,26.33 0 0 1 26.3,26.3 v 534.1 a 26.33,26.33 0 0 1 -26.3,26.3 H 1394 a 26.33,26.33 0 0 1 -26.3,-26.3 V 207.3 A 26.33,26.33 0 0 1 1394,181 Z"
       id="path7" />
    <path
       class="cls-1"
       d="m 795.74399,237.62938 v -25.8 h 5 v 21.3 h 11.7 v 4.5 z"
       id="path219-9"
       style="fill:#ffffff" />
    <text
       xml:space="preserve"
       style="font-style:normal;font-variant:normal;font-weight:bold;font-stretch:normal;font-size:36px;font-family:sans-serif;-inkscape-font-specification:'sans-serif Bold';text-align:start;letter-spacing:0px;writing-mode:lr-tb;direction:ltr;text-anchor:start;fill:#ffffff;fill-opacity:1"
       x="835.23541"
       y="237.59053"
       id="text395-5"><tspan
         sodipodi:role="line"
         id="tspan395-1"
         x="835.23541"
         y="237.59053"
         style="font-style:normal;font-variant:normal;font-weight:bold;font-stretch:normal;font-size:36px;font-family:Bahnschrift;-inkscape-font-specification:'Bahnschrift Bold';letter-spacing:0px;fill:#ffffff;fill-opacity:1">M</tspan></text>
    <path
       class="cls-1"
       d="m 816.53605,237.60286 v -25.8 h 17 v 4.5 h -12 v 6 h 10.2 v 4.5 h -10.2 v 6.3 h 12 v 4.5 z"
       id="path202-4"
       style="fill:#ffffff" />
    <path
       class="cls-1"
       d="m 773.75762,237.58935 v -25.8 h 17 v 4.5 h -12 v 6 h 10.2 v 4.5 h -10.1 v 6.3 h 11.9 v 4.5 z"
       id="path207-0"
       style="fill:#ffffff" />
    <path
       class="cls-1"
       d="m 865.3565,237.58935 v -4.1 l 11,-17.2 h -10.5 v -4.5 h 16.4 v 4 l -11,17.3 h 11 v 4.5 z"
       id="path211-9"
       style="fill:#ffffff" />
    <path
       class="cls-1"
       d="m 886.7565,237.58935 v -25.8 h 17 v 4.5 h -12 v 6 h 10.2 v 4.5 h -10.2 v 6.3 h 12 v 4.5 z m 9.3,-28.3 h -3.2 l 2.3,-6.1 h 5 z"
       id="path212-0"
       style="fill:#ffffff" />
    <path
       class="cls-1"
       d="m 915.7565,237.78935 c -3.9,0 -6.9,-0.8 -9.4,-3.4 l 3.3,-3.3 a 8.77,8.77 0 0 0 6.2,2.2 c 3,0 4.6,-1.1 4.6,-3.2 a 2.66,2.66 0 0 0 -0.8,-2.2 3.62,3.62 0 0 0 -2.3,-0.9 l -3.1,-0.4 a 9.32,9.32 0 0 1 -5,-2.1 6.46,6.46 0 0 1 -1.8,-5.1 c 0,-4.6 3.4,-7.8 9,-7.8 a 11.17,11.17 0 0 1 8.3,3 l -3.2,3.1 a 7.45,7.45 0 0 0 -5.3,-1.8 c -2.7,0 -4,1.5 -4,3.3 a 2.76,2.76 0 0 0 0.8,1.9 4.36,4.36 0 0 0 2.4,1 l 3,0.4 a 8.22,8.22 0 0 1 4.9,2 7.37,7.37 0 0 1 2,5.5 c -0.1,5 -4.2,7.8 -9.6,7.8 z"
       id="path213-0"
       style="fill:#ffffff" />
  </g>
  <g
     id="világos">
    <path
       class="cls-3"
       d="m 81,151.2 h 1539.6 a 23.94,23.94 0 0 1 24,23.88 V 770.3 a 23.94,23.94 0 0 1 -23.88,24 H 81 A 23.94,23.94 0 0 1 57,770.42 V 175.2 a 24,24 0 0 1 24,-24 z"
       id="path13" />
    <path
       class="cls-5"
       d="m 150.4,660.3 a 17.16,17.16 0 0 1 -5.94,-23.53 v -0.07 a 18,18 0 0 1 6.9,-6.5"
       id="path26" />
    <path
       class="cls-5"
       d="m 125.1,679.4 a 48.16,48.16 0 0 1 0.4,-68.1 45.31,45.31 0 0 1 4.1,-3.6"
       id="path27" />
    <path
       class="cls-5"
       d="m 136.8,670.6 a 33.57,33.57 0 0 1 -2.59,-47.4 l 0.09,-0.1 v 0 a 36,36 0 0 1 5.5,-4.9"
       id="path28" />
    <path
       class="cls-5"
       d="m 250.6,628.2 a 17.18,17.18 0 0 1 1,30.1"
       id="path29" />
    <path
       class="cls-5"
       d="m 272.4,605.7 a 48.17,48.17 0 0 1 8.2,67.6 c -1.1,1.4 -2.4,2.8 -3.6,4.1"
       id="path30" />
    <path
       class="cls-5"
       d="m 262.3,616.2 a 33.64,33.64 0 0 1 7.9,46.9 v 0 a 36,36 0 0 1 -4.9,5.5"
       id="path31" />
    <path
       class="cls-5"
       d="m 184.8,611.4 h 32.6 a 12.5,12.5 0 0 1 12.5,12.5 v 37.2 a 12.5,12.5 0 0 1 -12.5,12.5 h -32.6 a 12.5,12.5 0 0 1 -12.5,-12.5 v 0 -37.1 a 12.53,12.53 0 0 1 12.46,-12.6 z"
       id="path32" />
    <path
       class="cls-5"
       d="m 137.8,290.5 h 80.7 a 12.55,12.55 0 0 1 12.6,12.5 v 37.1 a 12.55,12.55 0 0 1 -12.5,12.6 h -80.8 a 12.55,12.55 0 0 1 -12.6,-12.5 v -37.1 a 12.61,12.61 0 0 1 12.6,-12.6 z"
       id="path33" />
    <path
       class="cls-5"
       d="m 267.7,346.9 -24.3,-15.5 a 6,6 0 0 1 -2.7,-5 v -9.5 a 6,6 0 0 1 2.7,-5 l 24.3,-15.5 a 6,6 0 0 1 8.2,1.8 6.11,6.11 0 0 1 0.9,3.2 V 342 a 5.85,5.85 0 0 1 -5.8,5.9 h -0.1 a 7.54,7.54 0 0 1 -3.2,-1 z"
       id="path34" />
    <line
       class="cls-5"
       x1="128"
       y1="442.60001"
       x2="158.5"
       y2="463.70001"
       id="line42" />
    <path
       class="cls-5"
       d="m 183.2,446.3 h 32.6 a 12.5,12.5 0 0 1 12.5,12.5 V 496 a 12.5,12.5 0 0 1 -12.5,12.5 H 183.2 A 12.5,12.5 0 0 1 170.7,496 v -37.2 a 12.44,12.44 0 0 1 12.38,-12.5 z"
       id="path43" />
    <line
       class="cls-5"
       x1="158.5"
       y1="472.89999"
       x2="117.3"
       y2="461.39999"
       id="line43" />
    <line
       class="cls-5"
       x1="128"
       y1="520.90002"
       x2="158.5"
       y2="499.70001"
       id="line44" />
    <line
       class="cls-5"
       x1="158.5"
       y1="490.5"
       x2="117.3"
       y2="502.10001"
       id="line45" />
    <line
       class="cls-5"
       x1="158.5"
       y1="482.39999"
       x2="111"
       y2="482.39999"
       id="line46" />
    <line
       class="cls-5"
       x1="274"
       y1="443.20001"
       x2="243.5"
       y2="464.39999"
       id="line47" />
    <line
       class="cls-5"
       x1="243.5"
       y1="473.60001"
       x2="284.70001"
       y2="462"
       id="line48" />
    <line
       class="cls-5"
       x1="274"
       y1="521.5"
       x2="243.5"
       y2="500.39999"
       id="line49" />
    <line
       class="cls-5"
       x1="243.5"
       y1="491.20001"
       x2="284.70001"
       y2="502.79999"
       id="line50" />
    <line
       class="cls-5"
       x1="243.5"
       y1="483"
       x2="291.10001"
       y2="483"
       id="line51" />
    <line
       class="cls-5"
       x1="443.70001"
       y1="286.5"
       x2="443.70001"
       y2="507.5"
       id="line52" />
    <line
       class="cls-5"
       x1="603.70001"
       y1="286.5"
       x2="603.70001"
       y2="507.5"
       id="line53" />
    <line
       class="cls-5"
       x1="523.70001"
       y1="286.5"
       x2="523.70001"
       y2="298.5"
       id="line54" />
    <line
       class="cls-7"
       x1="523.70001"
       y1="320.39999"
       x2="523.70001"
       y2="484.60001"
       id="line55" />
    <line
       class="cls-5"
       x1="523.70001"
       y1="495.5"
       x2="523.70001"
       y2="507.5"
       id="line56" />
    <path
       class="cls-5"
       d="m 552.2,660.3 a 47.89,47.89 0 1 0 -67,-9.9 46.47,46.47 0 0 0 9.9,9.9"
       id="path56" />
    <path
       class="cls-5"
       d="m 493.6,660.3 h 61 a 4.6,4.6 0 0 1 4.6,4.58 V 669 a 4.6,4.6 0 0 1 -4.58,4.6 h -61 A 4.6,4.6 0 0 1 489,669 v -4.1 a 4.65,4.65 0 0 1 4.6,-4.6 z"
       id="path57" />
    <path
       class="cls-5"
       d="m 481.7,674.2 h 83.9 a 4.59,4.59 0 0 1 4.6,4.58 v 4.12 a 4.6,4.6 0 0 1 -4.58,4.6 H 481.7 a 4.6,4.6 0 0 1 -4.6,-4.58 v -4.12 a 4.65,4.65 0 0 1 4.6,-4.6 z"
       id="path58" />
    <path
       class="cls-8"
       d="m 498.8,586 h 1.5 a 12.1,12.1 0 0 0 12.1,11.9 v 0 1.5 a 12.1,12.1 0 0 0 -11.9,12.1 H 499 a 12,12 0 0 0 -12.1,-11.9 v 0 -1.5 A 12.1,12.1 0 0 0 498.8,586 Z"
       id="path59" />
    <path
       class="cls-8"
       d="m 532.9,631.5 h 1.1 a 9.41,9.41 0 0 0 9.52,9.3 h 0.08 v 1.1 a 9.41,9.41 0 0 0 -9.3,9.52 v 0.08 H 533 a 9.47,9.47 0 0 0 -9.5,-9.4 v 0 -1.1 a 9.41,9.41 0 0 0 9.4,-9.42 z"
       id="path60" />
    <line
       class="cls-8"
       x1="499.60001"
       y1="635.20001"
       x2="500"
       y2="635.20001"
       id="line60" />
    <line
       class="cls-8"
       x1="519.29999"
       y1="618.59998"
       x2="519.20001"
       y2="618.59998"
       id="line61" />
    <line
       class="cls-8"
       x1="538.79999"
       y1="601.59998"
       x2="538.70001"
       y2="601.59998"
       id="line62" />
    <line
       class="cls-8"
       x1="535.40002"
       y1="608.90002"
       x2="535.29999"
       y2="608.90002"
       id="line63" />
    <line
       class="cls-8"
       x1="538.29999"
       y1="594"
       x2="538.29999"
       y2="594"
       id="line64" />
    <path
       class="cls-8"
       d="m 562.2,453.8 h 9.2 a 9.85,9.85 0 0 1 9.9,9.82 v 29.18 a 9.85,9.85 0 0 1 -9.82,9.9 h -9.28 a 9.85,9.85 0 0 1 -9.9,-9.82 V 463.7 a 9.85,9.85 0 0 1 9.82,-9.9 z"
       id="path64" />
    <path
       class="cls-8"
       d="m 562.2,352.7 h 9.2 a 9.85,9.85 0 0 1 9.9,9.82 v 29.18 a 9.85,9.85 0 0 1 -9.82,9.9 h -9.28 a 9.85,9.85 0 0 1 -9.9,-9.82 V 362.6 a 9.85,9.85 0 0 1 9.82,-9.9 z"
       id="path65" />
    <path
       class="cls-8"
       d="m 479.1,308.4 h 9.2 a 9.85,9.85 0 0 1 9.9,9.82 v 29.18 a 9.85,9.85 0 0 1 -9.82,9.9 h -9.28 a 9.85,9.85 0 0 1 -9.9,-9.82 V 318.3 a 9.85,9.85 0 0 1 9.82,-9.9 z"
       id="path66" />
    <polyline
       class="cls-8"
       points="483.7 380.8 483.7 401.6 477.6 395.6"
       id="polyline66" />
    <polyline
       class="cls-8"
       points="483.7 401.6 483.7 401.6 489.7 395.6"
       id="polyline67" />
    <line
       class="cls-8"
       x1="483.70001"
       y1="367"
       x2="483.70001"
       y2="401.60001"
       id="line67" />
    <polyline
       class="cls-8"
       points="566.8 329.5 566.8 308.7 572.8 314.7"
       id="polyline68" />
    <polyline
       class="cls-8"
       points="566.8 308.7 566.8 308.7 560.8 314.7"
       id="polyline69" />
    <line
       class="cls-8"
       x1="566.79999"
       y1="343.29999"
       x2="566.79999"
       y2="308.70001"
       id="line69" />
    <polyline
       class="cls-8"
       points="566.8 440 566.8 419.2 572.8 425.2"
       id="polyline70" />
    <polyline
       class="cls-8"
       points="566.8 419.2 566.8 419.2 560.8 425.2"
       id="polyline71" />
    <line
       class="cls-8"
       x1="566.79999"
       y1="444.89999"
       x2="566.79999"
       y2="419.20001"
       id="line71" />
    <line
       class="cls-5"
       x1="768"
       y1="282.10001"
       x2="768"
       y2="691"
       id="line72" />
    <line
       class="cls-5"
       x1="928"
       y1="282.10001"
       x2="928"
       y2="691"
       id="line73" />
    <line
       class="cls-5"
       x1="848"
       y1="282.10001"
       x2="848"
       y2="294.10001"
       id="line74" />
    <line
       class="cls-9"
       x1="848"
       y1="316.70001"
       x2="848"
       y2="667.70001"
       id="line75" />
    <line
       class="cls-5"
       x1="848"
       y1="679"
       x2="848"
       y2="691"
       id="line76" />
    <path
       class="cls-8"
       d="m 886.5,572.8 h 9.2 a 9.85,9.85 0 0 1 9.9,9.82 v 29.18 a 9.85,9.85 0 0 1 -9.82,9.9 h -9.28 a 9.85,9.85 0 0 1 -9.9,-9.82 V 582.7 a 9.85,9.85 0 0 1 9.82,-9.9 z"
       id="path76" />
    <path
       class="cls-8"
       d="m 886.5,348.3 h 9.2 a 9.85,9.85 0 0 1 9.9,9.82 v 29.18 a 9.85,9.85 0 0 1 -9.82,9.9 h -9.28 a 9.85,9.85 0 0 1 -9.9,-9.82 V 358.2 a 9.92,9.92 0 0 1 9.9,-9.9 z"
       id="path77" />
    <path
       class="cls-8"
       d="m 803.4,592.7 h 9.2 a 9.85,9.85 0 0 1 9.9,9.82 v 29.18 a 9.85,9.85 0 0 1 -9.82,9.9 h -9.28 a 9.85,9.85 0 0 1 -9.9,-9.82 V 602.6 a 9.85,9.85 0 0 1 9.82,-9.9 z"
       id="path78" />
    <polyline
       class="cls-8"
       points="808 665.1 808 685.9 802 679.9"
       id="polyline78" />
    <polyline
       class="cls-8"
       points="808 685.9 808 685.9 814 679.9"
       id="polyline79" />
    <line
       class="cls-8"
       x1="808"
       y1="651.29999"
       x2="808"
       y2="685.90002"
       id="line79" />
    <polyline
       class="cls-8"
       points="891.1 325.2 891.1 304.3 897.1 310.4"
       id="polyline80" />
    <polyline
       class="cls-8"
       points="891.1 304.3 891.1 304.3 885.1 310.3"
       id="polyline81" />
    <line
       class="cls-8"
       x1="891.09998"
       y1="338.89999"
       x2="891.09998"
       y2="304.29999"
       id="line81" />
    <polyline
       class="cls-8"
       points="891.1 325.2 891.1 304.3 897.1 310.4"
       id="polyline80-2"
       style="fill:none;stroke:#34aec5;stroke-width:4px;stroke-linecap:round;stroke-linejoin:round"
       transform="rotate(-30,1293.4232,458.79081)" />
    <polyline
       class="cls-8"
       points="891.1 304.3 891.1 304.3 885.1 310.3"
       id="polyline81-48"
       style="fill:none;stroke:#34aec5;stroke-width:4px;stroke-linecap:round;stroke-linejoin:round"
       transform="rotate(-30,1293.4232,458.79081)" />
    <line
       class="cls-8"
       x1="885.05566"
       y1="556.1239"
       x2="867.75562"
       y2="526.15936"
       id="line81-6"
       style="fill:none;stroke:#34aec5;stroke-width:4px;stroke-linecap:round;stroke-linejoin:round" />
    <polyline
       class="cls-8"
       points="888.1 511.3 888.1 490.5 894.1 496.5"
       id="polyline82"
       transform="translate(2.6589148,6.6821703)" />
    <polyline
       class="cls-8"
       points="888.1 490.5 888.1 490.5 882.1 496.5"
       id="polyline83"
       transform="translate(2.6589148,6.6821703)" />
    <line
       class="cls-8"
       x1="890.75891"
       y1="554.98218"
       x2="890.75891"
       y2="497.18216"
       id="line83" />
    <line
       class="cls-5"
       x1="1090"
       y1="282"
       x2="1090"
       y2="690.89996"
       id="line72-8"
       style="fill:none;stroke:#34aec5;stroke-width:6px;stroke-linecap:round;stroke-linejoin:round" />
    <line
       class="cls-5"
       x1="1250"
       y1="282"
       x2="1250"
       y2="690.89996"
       id="line73-9"
       style="fill:none;stroke:#34aec5;stroke-width:6px;stroke-linecap:round;stroke-linejoin:round" />
    <line
       class="cls-5"
       x1="1170"
       y1="282"
       x2="1170"
       y2="294"
       id="line74-2"
       style="fill:none;stroke:#34aec5;stroke-width:6px;stroke-linecap:round;stroke-linejoin:round" />
    <line
       class="cls-9"
       x1="1170"
       y1="316.60001"
       x2="1170"
       y2="667.59998"
       id="line75-7"
       style="fill:none;stroke:#34aec5;stroke-width:6px;stroke-linecap:round;stroke-linejoin:round;stroke-dasharray:22.64, 22.64" />
    <line
       class="cls-5"
       x1="1170"
       y1="678.89996"
       x2="1170"
       y2="690.89996"
       id="line76-9"
       style="fill:none;stroke:#34aec5;stroke-width:6px;stroke-linecap:round;stroke-linejoin:round" />
    <path
       class="cls-8"
       d="m 1208.5,572.69999 h 9.2 a 9.85,9.85 0 0 1 9.9,9.82 v 29.18 a 9.85,9.85 0 0 1 -9.82,9.9 h -9.28 a 9.85,9.85 0 0 1 -9.9,-9.82 v -29.18 a 9.85,9.85 0 0 1 9.82,-9.9 z"
       id="path76-5"
       style="fill:none;stroke:#34aec5;stroke-width:4px;stroke-linecap:round;stroke-linejoin:round" />
    <path
       class="cls-8"
       d="m 1208.5,348.19999 h 9.2 a 9.85,9.85 0 0 1 9.9,9.82 v 29.18 a 9.85,9.85 0 0 1 -9.82,9.9 h -9.28 a 9.85,9.85 0 0 1 -9.9,-9.82 v -29.18 a 9.92,9.92 0 0 1 9.9,-9.9 z"
       id="path77-4"
       style="fill:none;stroke:#34aec5;stroke-width:4px;stroke-linecap:round;stroke-linejoin:round" />
    <path
       class="cls-8"
       d="m 1125.4,592.59999 h 9.2 a 9.85,9.85 0 0 1 9.9,9.82 v 29.18 a 9.85,9.85 0 0 1 -9.82,9.9 h -9.28 a 9.85,9.85 0 0 1 -9.9,-9.82 v -29.18 a 9.85,9.85 0 0 1 9.82,-9.9 z"
       id="path78-3"
       style="fill:none;stroke:#34aec5;stroke-width:4px;stroke-linecap:round;stroke-linejoin:round" />
    <polyline
       class="cls-8"
       points="808 665.1 808 685.9 802 679.9"
       id="polyline78-1"
       style="fill:none;stroke:#34aec5;stroke-width:4px;stroke-linecap:round;stroke-linejoin:round"
       transform="translate(322,-0.10001)" />
    <polyline
       class="cls-8"
       points="808 685.9 808 685.9 814 679.9"
       id="polyline79-2"
       style="fill:none;stroke:#34aec5;stroke-width:4px;stroke-linecap:round;stroke-linejoin:round"
       transform="translate(322,-0.10001)" />
    <line
       class="cls-8"
       x1="1130"
       y1="651.19995"
       x2="1130"
       y2="685.79999"
       id="line79-3"
       style="fill:none;stroke:#34aec5;stroke-width:4px;stroke-linecap:round;stroke-linejoin:round" />
    <polyline
       class="cls-8"
       points="891.1 325.2 891.1 304.3 897.1 310.4"
       id="polyline80-3"
       style="fill:none;stroke:#34aec5;stroke-width:4px;stroke-linecap:round;stroke-linejoin:round"
       transform="translate(322,-0.10001)" />
    <polyline
       class="cls-8"
       points="891.1 304.3 891.1 304.3 885.1 310.3"
       id="polyline81-4"
       style="fill:none;stroke:#34aec5;stroke-width:4px;stroke-linecap:round;stroke-linejoin:round"
       transform="translate(322,-0.10001)" />
    <line
       class="cls-8"
       x1="1213.1"
       y1="338.79999"
       x2="1213.1"
       y2="304.19998"
       id="line81-1"
       style="fill:none;stroke:#34aec5;stroke-width:4px;stroke-linecap:round;stroke-linejoin:round" />
    <path
       class="cls-10"
       d="m 1213.075,563.58177 v -0.6 c 0,-27.5 -5,-25 -14,-34 l -46.4,-46.4 c -9,-9 -17.8,-20.8 -21.2,-41 v -96.2"
       id="path83-7"
       style="fill:none;stroke:#34aec5;stroke-width:6px;stroke-linecap:round;stroke-linejoin:round;stroke-dasharray:0, 10" />
    <polyline
       class="cls-5"
       points="795.6 358.5 806.8 347.3 818.1 358.6"
       id="polyline84-4"
       style="fill:none;stroke:#34aec5;stroke-width:6px;stroke-linecap:round;stroke-linejoin:round"
       transform="translate(324.97497,-1.2182256)" />
    <circle
       class="cls-5"
       cx="1491.6"
       cy="416.5"
       r="67.199997"
       id="circle93" />
    <path
       class="cls-5"
       d="m 1427.4,396.5 46.6,-4.3 a 188.15,188.15 0 0 1 35.2,0 l 46.5,4.3"
       id="path93" />
    <path
       class="cls-5"
       d="m 1474.6,481.5 a 54.27,54.27 0 0 0 0.3,-5.7 55.78,55.78 0 0 0 -50.4,-55.5"
       id="path94" />
    <path
       class="cls-5"
       d="m 1508.5,481.5 a 54.27,54.27 0 0 1 -0.3,-5.7 55.78,55.78 0 0 1 50.4,-55.5"
       id="path95" />
    <path
       class="cls-5"
       d="m 1539.1,526.3 h 15.6 a 12,12 0 0 1 12,12 v 46.1 a 12,12 0 0 1 -12,12 h -15.6 a 12,12 0 0 1 -12,-12 v -46.1 a 12,12 0 0 1 12,-12 z"
       id="path99" />
    <path
       class="cls-5"
       d="m 1436.4,542.6 h 58.6 a 12,12 0 0 1 12,12 v 27.1 a 12,12 0 0 1 -12,12 h -58.6 a 12,12 0 0 1 -12,-12 v -27.1 a 12,12 0 0 1 12,-12 z"
       id="path100" />
    <polygon
       class="cls-5"
       points="1558.1,563.3 1538,551.7 1538,575 "
       id="polygon100" />
    <path
       class="cls-5"
       d="m 1454.1,555.3 h 3.4 a 3.59,3.59 0 0 1 3.6,3.58 v 18.42 a 3.59,3.59 0 0 1 -3.58,3.6 h -3.42 a 3.59,3.59 0 0 1 -3.6,-3.58 V 558.9 a 3.52,3.52 0 0 1 3.44,-3.6 z"
       id="path101" />
    <path
       class="cls-5"
       d="m 1474,555.3 h 3.4 a 3.59,3.59 0 0 1 3.6,3.58 v 18.42 a 3.59,3.59 0 0 1 -3.58,3.6 H 1474 a 3.59,3.59 0 0 1 -3.6,-3.58 V 558.9 a 3.47,3.47 0 0 1 3.33,-3.6 z"
       id="path102" />
    <polygon
       class="cls-2"
       points="362,459.1 390.4,487.6 362,515.9 362,500.9 341.4,500.9 341.4,474.1 362,474.1 "
       id="polygon115" />
    <polygon
       class="cls-2"
       points="684.1,459.1 712.5,487.6 684.1,515.9 684.1,500.9 663.5,500.9 663.5,474.1 684.1,474.1 "
       id="polygon116" />
    <polygon
       class="cls-2"
       points="1006.2,459.1 1034.6,487.6 1006.2,515.9 1006.2,500.9 985.6,500.9 985.6,474.1 1006.2,474.1 "
       id="polygon117" />
    <polygon
       class="cls-2"
       points="1328.3,459.1 1356.8,487.6 1328.3,515.9 1328.3,500.9 1307.7,500.9 1307.7,474.1 1328.3,474.1 "
       id="polygon118" />
  </g>
  <g
     id="sense-think-act">
    <path
       class="cls-12"
       d="m 166.3,82.3 c -3.6,0 -6.3,-0.8 -8.6,-3.1 l 3,-3 a 7.68,7.68 0 0 0 5.7,2 c 2.7,0 4.2,-1 4.2,-2.9 a 2.72,2.72 0 0 0 -0.7,-2 3.44,3.44 0 0 0 -2.1,-0.8 L 165,72.1 a 8.48,8.48 0 0 1 -4.6,-1.9 6.17,6.17 0 0 1 -1.7,-4.6 c 0,-4.2 3.1,-7.1 8.2,-7.1 a 10.28,10.28 0 0 1 7.6,2.7 l -2.9,2.9 a 6.67,6.67 0 0 0 -4.8,-1.6 c -2.4,0 -3.6,1.4 -3.6,3 a 2.32,2.32 0 0 0 0.7,1.7 4.05,4.05 0 0 0 2.2,0.9 l 2.8,0.4 a 8.16,8.16 0 0 1 4.5,1.8 6.44,6.44 0 0 1 1.8,5 c -0.2,4.4 -4,7 -8.9,7 z"
       id="path118" />
    <path
       class="cls-12"
       d="M 179.3,82.1 V 58.5 h 15.5 v 4.1 h -10.9 v 5.5 h 9.3 v 4.1 h -9.3 V 78 h 10.9 v 4.1 z"
       id="path119" />
    <path
       class="cls-12"
       d="m 213.2,82.1 -9.3,-14.4 v 14.4 h -4.6 V 58.5 h 4.1 l 9.3,14.4 V 58.5 h 4.6 V 82 h -4.1 z"
       id="path120" />
    <path
       class="cls-12"
       d="m 229.3,82.3 c -3.6,0 -6.3,-0.8 -8.6,-3.1 l 3,-3 a 7.68,7.68 0 0 0 5.7,2 c 2.7,0 4.2,-1 4.2,-2.9 a 2.72,2.72 0 0 0 -0.7,-2 3.44,3.44 0 0 0 -2.1,-0.8 L 228,72.1 a 8.48,8.48 0 0 1 -4.6,-1.9 6.17,6.17 0 0 1 -1.7,-4.6 c 0,-4.2 3.1,-7.1 8.2,-7.1 a 10.28,10.28 0 0 1 7.6,2.7 l -2.9,2.9 a 6.67,6.67 0 0 0 -4.8,-1.6 c -2.4,0 -3.6,1.4 -3.6,3 a 2.32,2.32 0 0 0 0.7,1.7 4.05,4.05 0 0 0 2.2,0.9 l 2.8,0.4 a 8.16,8.16 0 0 1 4.5,1.8 6.44,6.44 0 0 1 1.8,5 c -0.2,4.4 -4,7 -8.9,7 z"
       id="path121" />
    <path
       class="cls-12"
       d="M 242.4,82.1 V 58.5 h 15.5 v 4.1 H 247 v 5.5 h 9.3 v 4.1 H 247 V 78 h 10.9 v 4.1 z"
       id="path122" />
    <path
       class="cls-12"
       d="m 805.2,62.8 v 19.4 h -4.6 V 62.8 h -6.1 v -4.1 h 16.9 v 4.1 z"
       id="path123" />
    <path
       class="cls-12"
       d="m 827.6,82.3 v -9.8 h -8 v 9.8 H 815 V 58.7 h 4.6 v 9.6 h 8 v -9.6 h 4.6 v 23.5 h -4.6 z"
       id="path124" />
    <path
       class="cls-12"
       d="M 837.7,82.3 V 58.7 h 4.6 v 23.5 h -4.6 z"
       id="path125" />
    <path
       class="cls-12"
       d="m 861.7,82.3 -9.3,-14.4 v 14.4 h -4.6 V 58.7 h 4.1 l 9.3,14.4 V 58.7 h 4.6 v 23.5 h -4.1 z"
       id="path126" />
    <path
       class="cls-12"
       d="m 885,82.3 -6,-10.7 -3,3.6 v 7.1 h -4.6 V 58.7 H 876 V 69 l 8.3,-10.2 h 5.6 l -7.8,9.3 8.4,14.2 z"
       id="path127" />
    <path
       class="cls-12"
       d="m 1476.9,81.7 -1.4,-4.2 h -8.4 l -1.4,4.2 h -4.8 l 8.6,-23.5 h 3.6 l 8.6,23.5 z m -5.5,-16.6 -3,8.6 h 5.8 z"
       id="path128" />
    <path
       class="cls-12"
       d="m 1492.7,81.9 a 8.58,8.58 0 0 1 -6.3,-2.6 6.35,6.35 0 0 1 -1.9,-3.5 28.88,28.88 0 0 1 -0.4,-5.8 28.16,28.16 0 0 1 0.4,-5.8 6.72,6.72 0 0 1 1.9,-3.5 8.58,8.58 0 0 1 6.3,-2.6 8.32,8.32 0 0 1 8.7,7.4 h -4.7 a 3.91,3.91 0 0 0 -4,-3.3 3.56,3.56 0 0 0 -2.9,1.2 c -1,1 -1.2,2.1 -1.2,6.6 0,4.5 0.2,5.6 1.2,6.6 a 3.7,3.7 0 0 0 2.9,1.2 3.91,3.91 0 0 0 4,-3.3 h 4.7 c -0.9,4.7 -4.2,7.4 -8.7,7.4 z"
       id="path129" />
    <path
       class="cls-12"
       d="m 1513.2,62.2 v 19.4 h -4.6 V 62.2 h -6.1 v -4.1 h 16.9 v 4.1 z"
       id="path130" />
    <polygon
       class="cls-13"
       points="917.8,83.7 913.6,79.4 922,70.9 913.7,62.5 917.8,58.3 926.2,66.7 930.5,71 926.3,75.2 "
       id="polygon130" />
    <polygon
       class="cls-13"
       points="934.9,83.7 930.7,79.4 939.1,70.9 930.8,62.5 934.9,58.3 943.3,66.7 947.6,71 943.4,75.2 "
       id="polygon131" />
    <polygon
       class="cls-13"
       points="952,83.7 947.8,79.4 956.2,70.9 947.8,62.5 952,58.3 960.4,66.7 964.7,71 960.5,75.2 "
       id="polygon132" />
    <polygon
       class="cls-13"
       points="969.1,83.7 964.8,79.4 973.3,70.9 964.9,62.5 969.1,58.3 977.5,66.7 981.8,71 977.6,75.2 "
       id="polygon133" />
    <polygon
       class="cls-13"
       points="986.2,83.7 981.9,79.4 990.4,70.9 982,62.5 986.2,58.3 994.6,66.7 998.9,71 994.7,75.2 "
       id="polygon134" />
    <polygon
       class="cls-13"
       points="1003.3,83.7 999,79.4 1007.5,70.9 999.1,62.5 1003.3,58.3 1011.7,66.7 1016,71 1011.8,75.2 "
       id="polygon135" />
    <polygon
       class="cls-13"
       points="1020.4,83.7 1016.1,79.4 1024.6,70.9 1016.2,62.5 1020.4,58.3 1028.8,66.7 1033,71 1028.8,75.2 "
       id="polygon136" />
    <polygon
       class="cls-13"
       points="1037.5,83.7 1033.2,79.4 1041.7,70.9 1033.3,62.5 1037.5,58.3 1045.8,66.7 1050.1,71 1045.9,75.2 "
       id="polygon137" />
    <polygon
       class="cls-13"
       points="1054.6,83.7 1050.3,79.4 1058.8,70.9 1050.4,62.5 1054.6,58.3 1062.9,66.7 1067.2,71 1063,75.2 "
       id="polygon138" />
    <polygon
       class="cls-13"
       points="1071.7,83.7 1067.4,79.4 1075.8,70.9 1067.5,62.5 1071.7,58.3 1080,66.7 1084.3,71 1080.1,75.2 "
       id="polygon139" />
    <polygon
       class="cls-13"
       points="1088.8,83.7 1084.5,79.4 1092.9,70.9 1084.6,62.5 1088.8,58.3 1097.1,66.7 1101.4,71 1097.2,75.2 "
       id="polygon140" />
    <polygon
       class="cls-13"
       points="1105.8,83.7 1101.6,79.4 1110,70.9 1101.7,62.5 1105.8,58.3 1114.2,66.7 1118.5,71 1114.3,75.2 "
       id="polygon141" />
    <polygon
       class="cls-13"
       points="1122.9,83.7 1118.7,79.4 1127.1,70.9 1118.8,62.5 1122.9,58.3 1131.3,66.7 1135.6,71 1131.4,75.2 "
       id="polygon142" />
    <polygon
       class="cls-13"
       points="1140,83.7 1135.8,79.4 1144.2,70.9 1135.8,62.5 1140,58.3 1148.4,66.7 1152.7,71 1148.5,75.2 "
       id="polygon143" />
    <polygon
       class="cls-13"
       points="1157.1,83.7 1152.8,79.4 1161.3,70.9 1152.9,62.5 1157.1,58.3 1165.5,66.7 1169.8,71 1165.6,75.2 "
       id="polygon144" />
    <polygon
       class="cls-13"
       points="1174.2,83.7 1169.9,79.4 1178.4,70.9 1170,62.5 1174.2,58.3 1182.6,66.7 1186.8,71 1182.7,75.2 "
       id="polygon145" />
    <polygon
       class="cls-13"
       points="1191.3,83.7 1187,79.4 1195.5,70.9 1187.1,62.5 1191.3,58.3 1199.7,66.7 1203.9,71 1199.8,75.2 "
       id="polygon146" />
    <polygon
       class="cls-13"
       points="1208.4,83.7 1204.1,79.4 1212.6,70.9 1204.2,62.5 1208.4,58.3 1216.8,66.7 1221,71 1216.8,75.2 "
       id="polygon147" />
    <polygon
       class="cls-13"
       points="1225.5,83.7 1221.2,79.4 1229.7,70.9 1221.3,62.5 1225.5,58.3 1233.8,66.7 1238.1,71 1233.9,75.2 "
       id="polygon148" />
    <polygon
       class="cls-13"
       points="1242.6,83.7 1238.3,79.4 1246.8,70.9 1238.4,62.5 1242.6,58.3 1250.9,66.7 1255.2,71 1251,75.2 "
       id="polygon149" />
    <polygon
       class="cls-13"
       points="1259.7,83.7 1255.4,79.4 1263.8,70.9 1255.5,62.5 1259.7,58.3 1268,66.7 1272.3,71 1268.1,75.2 "
       id="polygon150" />
    <polygon
       class="cls-13"
       points="1276.7,83.7 1272.5,79.4 1280.9,70.9 1272.6,62.5 1276.7,58.3 1285.1,66.7 1289.4,71 1285.2,75.2 "
       id="polygon151" />
    <polygon
       class="cls-13"
       points="1293.8,83.7 1289.6,79.4 1298,70.9 1289.7,62.5 1293.8,58.3 1302.2,66.7 1306.5,71 1302.3,75.2 "
       id="polygon152" />
    <polygon
       class="cls-13"
       points="1310.9,83.7 1306.7,79.4 1315.1,70.9 1306.7,62.5 1310.9,58.3 1319.3,66.7 1323.6,71 1319.4,75.2 "
       id="polygon153" />
    <polygon
       class="cls-13"
       points="1328,83.7 1323.7,79.4 1332.2,70.9 1323.8,62.5 1328,58.3 1336.4,66.7 1340.7,71 1336.5,75.2 "
       id="polygon154" />
    <polygon
       class="cls-13"
       points="1345.1,83.7 1340.8,79.4 1349.3,70.9 1340.9,62.5 1345.1,58.3 1353.5,66.7 1357.8,71 1353.6,75.2 "
       id="polygon155" />
    <polygon
       class="cls-13"
       points="1362.2,83.7 1357.9,79.4 1366.4,70.9 1358,62.5 1362.2,58.3 1370.6,66.7 1374.8,71 1370.7,75.2 "
       id="polygon156" />
    <polygon
       class="cls-13"
       points="1379.3,83.7 1375,79.4 1383.5,70.9 1375.1,62.5 1379.3,58.3 1387.7,66.7 1391.9,71 1387.8,75.2 "
       id="polygon157" />
    <polygon
       class="cls-13"
       points="1396.4,83.7 1392.1,79.4 1400.6,70.9 1392.2,62.5 1396.4,58.3 1404.8,66.7 1409,71 1404.8,75.2 "
       id="polygon158" />
    <polygon
       class="cls-13"
       points="1416.1,83.7 1411.8,79.4 1420.3,70.9 1411.9,62.5 1416.1,58.3 1424.4,66.7 1428.7,71 1424.5,75.2 "
       id="polygon159" />
    <polygon
       class="cls-13"
       points="1433.2,83.7 1428.9,79.4 1437.4,70.9 1429,62.5 1433.2,58.3 1441.5,66.7 1445.8,71 1441.6,75.2 "
       id="polygon160" />
    <polygon
       class="cls-13"
       points="288.1,83.7 283.9,79.4 292.3,70.9 284,62.5 288.1,58.3 296.5,66.7 300.8,71 296.6,75.2 "
       id="polygon161" />
    <polygon
       class="cls-13"
       points="305.2,83.7 301,79.4 309.4,70.9 301.1,62.5 305.2,58.3 313.6,66.7 317.9,71 313.7,75.2 "
       id="polygon162" />
    <polygon
       class="cls-13"
       points="322.3,83.7 318,79.4 326.5,70.9 318.1,62.5 322.3,58.3 330.7,66.7 335,71 330.8,75.2 "
       id="polygon163" />
    <polygon
       class="cls-13"
       points="339.4,83.7 335.1,79.4 343.6,70.9 335.2,62.5 339.4,58.3 347.8,66.7 352.1,71 347.9,75.2 "
       id="polygon164" />
    <polygon
       class="cls-13"
       points="356.5,83.7 352.2,79.4 360.7,70.9 352.3,62.5 356.5,58.3 364.9,66.7 369.2,71 365,75.2 "
       id="polygon165" />
    <polygon
       class="cls-13"
       points="373.6,83.7 369.3,79.4 377.8,70.9 369.4,62.5 373.6,58.3 382,66.7 386.2,71 382.1,75.2 "
       id="polygon166" />
    <polygon
       class="cls-13"
       points="390.7,83.7 386.4,79.4 394.9,70.9 386.5,62.5 390.7,58.3 399.1,66.7 403.3,71 399.1,75.2 "
       id="polygon167" />
    <polygon
       class="cls-13"
       points="407.8,83.7 403.5,79.4 412,70.9 403.6,62.5 407.8,58.3 416.1,66.7 420.4,71 416.2,75.2 "
       id="polygon168" />
    <polygon
       class="cls-13"
       points="424.9,83.7 420.6,79.4 429.1,70.9 420.7,62.5 424.9,58.3 433.2,66.7 437.5,71 433.3,75.2 "
       id="polygon169" />
    <polygon
       class="cls-13"
       points="442,83.7 437.7,79.4 446.1,70.9 437.8,62.5 442,58.3 450.3,66.7 454.6,71 450.4,75.2 "
       id="polygon170" />
    <polygon
       class="cls-13"
       points="459,83.7 454.8,79.4 463.2,70.9 454.9,62.5 459,58.3 467.4,66.7 471.7,71 467.5,75.2 "
       id="polygon171" />
    <polygon
       class="cls-13"
       points="476.1,83.7 471.9,79.4 480.3,70.9 472,62.5 476.1,58.3 484.5,66.7 488.8,71 484.6,75.2 "
       id="polygon172" />
    <polygon
       class="cls-13"
       points="493.2,83.7 489,79.4 497.4,70.9 489,62.5 493.2,58.3 501.6,66.7 505.9,71 501.7,75.2 "
       id="polygon173" />
    <polygon
       class="cls-13"
       points="510.3,83.7 506,79.4 514.5,70.9 506.1,62.5 510.3,58.3 518.7,66.7 523,71 518.8,75.2 "
       id="polygon174" />
    <polygon
       class="cls-13"
       points="527.4,83.7 523.1,79.4 531.6,70.9 523.2,62.5 527.4,58.3 535.8,66.7 540.1,71 535.9,75.2 "
       id="polygon175" />
    <polygon
       class="cls-13"
       points="544.5,83.7 540.2,79.4 548.7,70.9 540.3,62.5 544.5,58.3 552.9,66.7 557.2,71 553,75.2 "
       id="polygon176" />
    <polygon
       class="cls-13"
       points="561.6,83.7 557.3,79.4 565.8,70.9 557.4,62.5 561.6,58.3 570,66.7 574.2,71 570,75.2 "
       id="polygon177" />
    <polygon
       class="cls-13"
       points="578.7,83.7 574.4,79.4 582.9,70.9 574.5,62.5 578.7,58.3 587,66.7 591.3,71 587.1,75.2 "
       id="polygon178" />
    <polygon
       class="cls-13"
       points="595.8,83.7 591.5,79.4 600,70.9 591.6,62.5 595.8,58.3 604.1,66.7 608.4,71 604.2,75.2 "
       id="polygon179" />
    <polygon
       class="cls-13"
       points="612.9,83.7 608.6,79.4 617,70.9 608.7,62.5 612.9,58.3 621.2,66.7 625.5,71 621.3,75.2 "
       id="polygon180" />
    <polygon
       class="cls-13"
       points="630,83.7 625.7,79.4 634.1,70.9 625.8,62.5 630,58.3 638.3,66.7 642.6,71 638.4,75.2 "
       id="polygon181" />
    <polygon
       class="cls-13"
       points="647,83.7 642.8,79.4 651.2,70.9 642.9,62.5 647,58.3 655.4,66.7 659.7,71 655.5,75.2 "
       id="polygon182" />
    <polygon
       class="cls-13"
       points="664.1,83.7 659.9,79.4 668.3,70.9 660,62.5 664.1,58.3 672.5,66.7 676.8,71 672.6,75.2 "
       id="polygon183" />
    <polygon
       class="cls-13"
       points="681.2,83.7 677,79.4 685.4,70.9 677,62.5 681.2,58.3 689.6,66.7 693.9,71 689.7,75.2 "
       id="polygon184" />
    <polygon
       class="cls-13"
       points="698.3,83.7 694,79.4 702.5,70.9 694.1,62.5 698.3,58.3 706.7,66.7 711,71 706.8,75.2 "
       id="polygon185" />
    <polygon
       class="cls-13"
       points="715.4,83.7 711.1,79.4 719.6,70.9 711.2,62.5 715.4,58.3 723.8,66.7 728.1,71 723.9,75.2 "
       id="polygon186" />
    <polygon
       class="cls-13"
       points="732.5,83.7 728.2,79.4 736.7,70.9 728.3,62.5 732.5,58.3 740.9,66.7 745.2,71 741,75.2 "
       id="polygon187" />
    <polygon
       class="cls-13"
       points="749.6,83.7 745.3,79.4 753.8,70.9 745.4,62.5 749.6,58.3 758,66.7 762.2,71 758,75.2 "
       id="polygon188" />
    <polygon
       class="cls-13"
       points="766.7,83.7 762.4,79.4 770.9,70.9 762.5,62.5 766.7,58.3 775,66.7 779.3,71 775.1,75.2 "
       id="polygon189" />
  </g>
  <g
     id="szöveg_hun"
     data-name="szöveg hun">
    <path
       class="cls-1"
       d="m 107.8,237.5 v -25.8 h 17 v 4.5 h -12 v 6 H 123 v 4.5 h -10.2 v 6.3 h 11.9 v 4.5 z m 9.3,-28.3 H 114 l 2.3,-6.2 h 5 z"
       id="path189" />
    <path
       class="cls-1"
       d="m 143.3,237.5 -5,-10.3 h -3.6 v 10.3 h -5 v -25.8 h 10.1 c 5.2,0 8.4,3.6 8.4,7.9 a 7,7 0 0 1 -4.7,6.8 l 5.8,11.1 z m -3.9,-21.3 h -4.7 v 6.8 h 4.7 a 3.41,3.41 0 1 0 0.73,-6.78 h -0.33 z"
       id="path190" />
    <path
       class="cls-1"
       d="m 151.8,237.5 v -4.1 l 11,-17.2 h -10.5 v -4.5 h 16.5 v 4 l -11,17.3 h 11 v 4.5 z"
       id="path191" />
    <path
       class="cls-1"
       d="m 173.2,237.5 v -25.8 h 17 v 4.5 h -12 v 6 h 10.2 v 4.5 h -10.1 v 6.3 h 11.9 v 4.5 z m 9.3,-28.3 h -3.1 l 2.3,-6.2 h 5 z"
       id="path192" />
    <path
       class="cls-1"
       d="m 210,237.5 -6.6,-11.7 -3.3,4 v 7.7 h -5 v -25.8 h 5 v 11.2 l 9.1,-11.2 h 6.1 l -8.5,10.3 9.2,15.5 z"
       id="path193" />
    <path
       class="cls-1"
       d="m 219.1,237.5 v -25.8 h 17 v 4.5 h -12 v 6 h 10.2 v 4.5 h -10.1 v 6.3 h 11.9 v 4.5 z"
       id="path194" />
    <path
       class="cls-1"
       d="m 241,237.5 v -25.8 h 5 V 233 h 11.7 v 4.5 z"
       id="path195" />
    <path
       class="cls-1"
       d="m 261.8,237.5 v -25.8 h 17 v 4.5 h -12 v 6 H 277 v 4.5 h -10.1 v 6.3 h 11.9 v 4.5 z m 9.4,-28.3 H 268 l 2.3,-6.2 h 5 z"
       id="path196" />
    <path
       class="cls-1"
       d="m 290.8,237.7 c -3.9,0 -6.9,-0.8 -9.4,-3.4 l 3.3,-3.3 a 8.77,8.77 0 0 0 6.2,2.2 c 3,0 4.6,-1.1 4.6,-3.2 a 2.66,2.66 0 0 0 -0.8,-2.2 4.29,4.29 0 0 0 -2.3,-0.9 l -3.1,-0.4 a 9,9 0 0 1 -5,-2.1 6.93,6.93 0 0 1 -1.9,-5.1 c 0,-4.6 3.4,-7.8 9,-7.8 a 11.17,11.17 0 0 1 8.3,3 l -3.2,3.1 a 7.45,7.45 0 0 0 -5.3,-1.8 c -2.7,0 -4,1.5 -4,3.2 a 2.37,2.37 0 0 0 0.8,1.9 4.36,4.36 0 0 0 2.4,1 l 3,0.4 a 8.22,8.22 0 0 1 4.9,2 7.37,7.37 0 0 1 2,5.5 c 0.1,5.1 -4.1,7.9 -9.5,7.9 z"
       id="path197" />
    <path
       class="cls-1"
       d="m 445.1,237.5 v -25.8 h 17 v 4.5 h -12 v 6 h 10.2 v 4.5 h -10.1 v 6.3 h 11.9 v 4.5 z m 9.3,-28.3 h -3.1 l 2.3,-6.1 h 5 z"
       id="path198" />
    <path
       class="cls-1"
       d="m 474.1,237.7 c -3.9,0 -6.9,-0.8 -9.4,-3.4 l 3.2,-3.3 a 8.77,8.77 0 0 0 6.2,2.2 c 3,0 4.6,-1.1 4.6,-3.2 a 2.66,2.66 0 0 0 -0.8,-2.2 3.62,3.62 0 0 0 -2.3,-0.9 l -3.1,-0.4 a 9,9 0 0 1 -5,-2.1 6.93,6.93 0 0 1 -1.9,-5.1 c 0,-4.6 3.4,-7.8 9,-7.8 a 11.17,11.17 0 0 1 8.3,3 l -3.2,3.1 a 7.45,7.45 0 0 0 -5.3,-1.8 c -2.7,0 -4,1.5 -4,3.3 a 2.76,2.76 0 0 0 0.8,1.9 4.36,4.36 0 0 0 2.4,1 l 3,0.4 a 8.22,8.22 0 0 1 4.9,2 7.37,7.37 0 0 1 2,5.5 c 0.1,5 -4,7.8 -9.4,7.8 z"
       id="path199" />
    <path
       class="cls-1"
       d="m 486.8,237.5 v -4.1 l 11,-17.2 h -10.5 v -4.5 h 16.5 v 4 l -11,17.3 h 11 v 4.5 z"
       id="path200" />
    <path
       class="cls-1"
       d="m 508.2,237.5 v -25.8 h 5 V 233 h 11.7 v 4.5 z"
       id="path201" />
    <path
       class="cls-1"
       d="m 529,237.5 v -25.8 h 17 v 4.5 h -12 v 6 h 10.2 v 4.5 H 534 v 6.3 h 12 v 4.5 z"
       id="path202" />
    <path
       class="cls-1"
       d="m 550.9,237.5 v -25.8 h 5 V 233 h 11.7 v 4.5 z"
       id="path203" />
    <path
       class="cls-1"
       d="m 571.7,237.5 v -25.8 h 17 v 4.5 h -12 v 6 h 10.2 v 4.5 h -10.1 v 6.3 h 11.9 v 4.5 z m 9.4,-28.3 h -3.2 l 2.3,-6.1 h 5 z"
       id="path204" />
    <path
       class="cls-1"
       d="m 600.7,237.7 c -3.9,0 -6.9,-0.8 -9.4,-3.4 l 3.3,-3.3 a 8.77,8.77 0 0 0 6.2,2.2 c 3,0 4.6,-1.1 4.6,-3.2 a 2.66,2.66 0 0 0 -0.8,-2.2 3.62,3.62 0 0 0 -2.3,-0.9 l -3.1,-0.4 a 9.32,9.32 0 0 1 -5,-2.1 6.8,6.8 0 0 1 -1.8,-5.1 c 0,-4.6 3.4,-7.8 9,-7.8 a 11.17,11.17 0 0 1 8.3,3 l -3.2,3.1 a 7.29,7.29 0 0 0 -5.3,-1.8 c -2.7,0 -4,1.5 -4,3.3 a 2.76,2.76 0 0 0 0.8,1.9 4.36,4.36 0 0 0 2.4,1 l 3,0.4 a 8.22,8.22 0 0 1 4.9,2 7.37,7.37 0 0 1 2,5.5 c 0,5 -4.2,7.8 -9.6,7.8 z"
       id="path205" />
    <path
       class="cls-1"
       d="m 1489.0185,216.29554 v 21.3 h -5 v -21.3 h -6.7 v -4.5 h 18.5 v 4.5 z"
       id="path206-6"
       style="fill:#ffffff" />
    <path
       class="cls-1"
       d="m 1401.968,237.44535 v -25.8 h 17 v 4.5 h -12 v 6 h 10.2 v 4.5 h -10.1 v 6.3 h 11.9 v 4.5 z"
       id="path207-4"
       style="fill:#ffffff" />
    <path
       class="cls-1"
       d="m 1452.2772,237.57246 h -3.8 l -8.5,-25.8 h 5.2 l 5.2,16.8 5.2,-16.8 h 5.2 z"
       id="path209-3"
       style="fill:#ffffff" />
    <path
       class="cls-1"
       d="m 1096.7,216.1 v 21.3 h -5 v -21.3 h -6.7 v -4.5 h 18.5 v 4.5 z"
       id="path206-7"
       style="fill:#ffffff" />
    <path
       class="cls-1"
       d="m 1107.5,237.4 v -25.8 h 17 v 4.5 h -12 v 6 h 10.2 v 4.5 h -10.1 v 6.3 h 11.9 v 4.5 z"
       id="path207-7"
       style="fill:#ffffff" />
    <path
       class="cls-1"
       d="m 1143.1,237.4 -5,-10.3 h -3.6 v 10.3 h -5 v -25.8 h 10.1 c 5.2,0 8.4,3.6 8.4,7.9 a 7,7 0 0 1 -4.7,6.8 l 5.8,11.1 z m -3.9,-21.3 h -4.7 v 6.8 h 4.7 a 3.41,3.41 0 0 0 0.5,-6.8 z"
       id="path208-9"
       style="fill:#ffffff" />
    <path
       class="cls-1"
       d="m 1162.4,237.4 h -3.8 l -8.5,-25.8 h 5.2 l 5.2,16.8 5.2,-16.8 h 5.2 z"
       id="path209-31"
       style="fill:#ffffff" />
    <path
       class="cls-1"
       d="m 1174.1,237.4 v -25.8 h 17 v 4.5 h -12 v 6 h 10.2 v 4.5 h -10.2 v 6.3 h 11.9 v 4.5 z"
       id="path210-9"
       style="fill:#ffffff" />
    <path
       class="cls-1"
       d="m 1194.4,237.4 v -4.1 l 11,-17.2 h -10.5 v -4.5 h 16.4 v 4 l -11,17.3 h 11 v 4.5 z"
       id="path211-8"
       style="fill:#ffffff" />
    <path
       class="cls-1"
       d="m 1215.8,237.4 v -25.8 h 17 v 4.5 h -12 v 6 h 10.2 v 4.5 h -10.2 v 6.3 h 12 v 4.5 z m 9.3,-28.3 h -3.2 l 2.3,-6.1 h 5 z"
       id="path212-6"
       style="fill:#ffffff" />
    <path
       class="cls-1"
       d="m 1244.8,237.6 c -3.9,0 -6.9,-0.8 -9.4,-3.4 l 3.3,-3.3 a 8.77,8.77 0 0 0 6.2,2.2 c 3,0 4.6,-1.1 4.6,-3.2 a 2.66,2.66 0 0 0 -0.8,-2.2 3.62,3.62 0 0 0 -2.3,-0.9 l -3.1,-0.4 a 9.32,9.32 0 0 1 -5,-2.1 6.46,6.46 0 0 1 -1.8,-5.1 c 0,-4.6 3.4,-7.8 9,-7.8 a 11.17,11.17 0 0 1 8.3,3 l -3.2,3.1 a 7.45,7.45 0 0 0 -5.3,-1.8 c -2.7,0 -4,1.5 -4,3.3 a 2.76,2.76 0 0 0 0.8,1.9 4.36,4.36 0 0 0 2.4,1 l 3,0.4 a 8.22,8.22 0 0 1 4.9,2 7.37,7.37 0 0 1 2,5.5 c -0.1,5 -4.2,7.8 -9.6,7.8 z"
       id="path213-5"
       style="fill:#ffffff" />
    <path
       class="cls-1"
       d="m 1438.3796,237.5 -1.5,-4.6 h -9.2 l -1.6,4.6 h -5.2 l 9.4,-25.8 h 4 l 9.4,25.8 z m -6,-18.2 -3.3,9.4 h 6.4 z"
       id="path216" />
    <path
       class="cls-1"
       d="m 1474.748,237.51705 -1.5,-4.6 h -9.2 l -1.6,4.6 h -5.2 l 9.4,-25.8 h 4 l 9.4,25.8 z m -6,-18.2 -3.3,9.4 h 6.4 z"
       id="path216-2"
       style="fill:#ffffff" />
    <path
       class="cls-1"
       d="m 1391.6124,237.56778 h -10.8 v -25.8 h 10.3 c 5,0 8,2.8 8,7.2 a 5.9,5.9 0 0 1 -3.2,5.3 5.8,5.8 0 0 1 3.5,5.8 c 0.1,4.9 -3.2,7.5 -7.8,7.5 z m -0.8,-21.3 h -4.9 v 5.9 h 4.9 c 2.1,0 3.3,-1.2 3.3,-3 0,-1.8 -1.2,-2.9 -3.3,-2.9 z m 0.3,10.5 h -5.2 v 6.3 h 5.2 a 3.1535694,3.1535694 0 0 0 0.3,-6.3 v 0 c -0.1,0 -0.2,-0.1 -0.3,0 z"
       id="path217-6"
       style="fill:#ffffff" />
    <path
       class="cls-1"
       d="m 1542.5,237.5 v -4.1 l 11,-17.2 H 1543 v -4.5 h 16.5 v 4 l -11,17.3 h 11 v 4.5 z"
       id="path221" />
    <path
       class="cls-1"
       d="m 1578.5,237.5 -1.5,-4.6 h -9.2 l -1.6,4.6 h -5.3 l 9.4,-25.8 h 3.9 l 9.4,25.8 z m -6,-18.2 -3.2,9.4 h 6.4 z m 1,-10.1 h -3.2 l 2.3,-6.2 h 5 z"
       id="path222" />
    <path
       class="cls-1"
       d="m 1594,237.7 c -3.9,0 -6.9,-0.8 -9.4,-3.4 l 3.2,-3.3 a 8.77,8.77 0 0 0 6.2,2.2 c 3,0 4.6,-1.1 4.6,-3.2 a 2.66,2.66 0 0 0 -0.8,-2.2 3.62,3.62 0 0 0 -2.3,-0.9 l -3.1,-0.4 a 9,9 0 0 1 -5,-2.1 6.46,6.46 0 0 1 -1.8,-5.1 c 0,-4.6 3.4,-7.8 9,-7.8 a 11.17,11.17 0 0 1 8.3,3 l -3.2,3.1 a 7.45,7.45 0 0 0 -5.3,-1.8 c -2.7,0 -4,1.5 -4,3.2 a 2.76,2.76 0 0 0 0.8,1.9 4.36,4.36 0 0 0 2.4,1 l 3,0.4 a 8.22,8.22 0 0 1 4.9,2 7.37,7.37 0 0 1 2,5.5 c 0.1,5.1 -4.1,7.9 -9.5,7.9 z"
       id="path223" />
    <path
       class="cls-1"
       d="m 1513.9155,237.57132 -6.6,-11.7 -3.3,4 v 7.7 h -5 v -25.8 h 5 v 11.2 l 9.1,-11.2 h 6.1 l -8.5,10.3 9.2,15.5 z"
       id="path225-5"
       style="fill:#ffffff" />
    <path
       class="cls-1"
       d="m 1537.6641,234.845 a 9.9,9.9 0 0 1 -13.9,0 c -2.6,-2.6 -2.5,-5.8 -2.5,-10.3 0,-4.5 -0.1,-7.7 2.5,-10.3 a 9.9,9.9 0 0 1 13.9,0 c 2.6,2.6 2.6,5.8 2.6,10.3 0,4.5 0,7.6 -2.6,10.3 z m -3.7,-17.5 a 4.28,4.28 0 0 0 -3.2,-1.4 4.71,4.71 0 0 0 -3.3,1.4 c -1,1.1 -1.2,2.3 -1.2,7.2 0,4.9 0.2,6.1 1.2,7.2 a 4.35,4.35 0 0 0 3.3,1.4 4.28,4.28 0 0 0 3.2,-1.4 c 1,-1.1 1.3,-2.3 1.3,-7.2 0,-4.9 -0.3,-6.2 -1.3,-7.2 z"
       id="path230-6"
       style="fill:#ffffff" />
  </g>
  <polygon
     class="cls-13"
     points="145.91,56.55 145.92,56.55 145.91,56.56 "
     id="polygon393" />
  <text
     xml:space="preserve"
     style="font-style:normal;font-variant:normal;font-weight:bold;font-stretch:normal;font-size:37.3333px;font-family:Bahnschrift;-inkscape-font-specification:'Bahnschrift Bold';text-align:start;letter-spacing:-1.2px;writing-mode:lr-tb;direction:ltr;text-anchor:start;fill:#34aec5;fill-opacity:1"
     x="863.05072"
     y="512.83142"
     id="text393"><tspan
       sodipodi:role="line"
       id="tspan393"
       x="863.05072"
       y="512.83142"
       style="font-size:37.3333px;fill:#34aec5;fill-opacity:1">?</tspan></text>
</svg>
